<svg xmlns="http://www.w3.org/2000/svg" viewBox="0 0 512 512" x="0px" y="0px"><title>moon icon</title><desc>moon icon for website, application, printing, document, poster design, etc.</desc><metadata><?xpacket begin="&#65279;" id="W5M0MpCehiHzreSzNTczkc9d"?><x:xmpmeta xmlns:x="adobe:ns:meta/" x:xmptk="Adobe XMP Core 5.6-c145 79.162955, 2018/05/10-01:07:16        "></x:xmpmeta><?xpacket end="w"?></metadata><g><path d="M251.537,32A228.611,228.611,0,0,0,49.97,150.582a140.386,140.386,0,0,1,165.609-6.827,136.386,136.386,0,0,1,50.136,61.128,8,8,0,0,1-.723,7.471L214.894,288H280v16H266.959a135.283,135.283,0,0,1-14.565,27.82c10.132,8.263,24.415,12.843,39.792,12.517,17.294-.375,33.018-7.093,42.921-18.135A55.783,55.783,0,0,1,320,288h16a40,40,0,0,0,80,0h16a56.069,56.069,0,0,1-52.934,55.913C353.116,386,318.477,386.5,317,386.5l-.068-16c1.048-.018,24.034-.783,44.181-28.524a55.713,55.713,0,0,1-13.506-5.736c-12.9,14.881-33.107,24.114-56.971,24.114-18.3,0-35.393-5.767-48-15.888a136.632,136.632,0,0,1-11.758,11.953C239.494,362.84,255.6,372.5,274.5,372.5v16c-26.244,0-47.262-14.276-56.539-21.823A140.522,140.522,0,0,1,49.97,361.418,228.611,228.611,0,0,0,251.537,480c61.053,0,118.444-23.319,161.6-65.662C456.255,372.036,480,315.8,480,256S456.255,139.964,413.139,97.662C369.981,55.319,312.59,32,251.537,32ZM200,80H184V64h16Zm56-16H240V48h16ZM176,432H160V416h16Zm120,24H280V440h16Zm32-16H312V424h16Zm31.127-24.288L354.843,400.3a72.961,72.961,0,0,0,40.1-34.061l14.118,7.53C391.642,406.422,360.447,415.348,359.127,415.712ZM448,240h16v16H448ZM360,96h16v16H360Zm1.039,160c-23.043,0-43.148-14.983-47.8-35.628l15.608-3.519c3.025,13.412,16.566,23.147,32.2,23.147s29.171-9.735,32.2-23.147l15.608,3.519C404.187,241.017,384.083,256,361.039,256Zm70.194-61.063-12.388,10.126c-15.1-18.47-36.494-29.063-58.7-29.063-22.15,0-42.753,10.028-58.015,28.236l-12.262-10.277C307.957,172.378,333.572,160,360.146,160,387.172,160,413.082,172.734,431.233,194.937ZM416,144H400V128h16Z"></path></g></svg>